<svg xmlns="http://www.w3.org/2000/svg" xmlns:xlink="http://www.w3.org/1999/xlink" width="1300" zoomAndPan="magnify" viewBox="0 0 974.88 418.499988" height="558" preserveAspectRatio="xMidYMid meet" version="1.0"><defs><g/></defs><g fill="#0a63a4" fill-opacity="1"><g transform="translate(20.248909, 290.369025)"><g><path d="M 99.53125 -128.875 C 110.03125 -128.875 119.535156 -126.644531 128.046875 -122.1875 C 136.554688 -117.738281 143.273438 -111.296875 148.203125 -102.859375 C 153.140625 -94.429688 155.609375 -84.488281 155.609375 -73.03125 C 155.609375 -58.875 152.46875 -46.101562 146.1875 -34.71875 C 139.90625 -23.34375 131.3125 -14.429688 120.40625 -7.984375 C 109.507812 -1.546875 97.378906 1.671875 84.015625 1.671875 C 73.515625 1.671875 64.441406 -0.195312 56.796875 -3.9375 C 49.160156 -7.675781 43.351562 -13.125 39.375 -20.28125 L 35.328125 0 L 6.921875 0 L 42.25 -177.09375 L 72.078125 -177.09375 L 59.90625 -115.515625 C 70.726562 -124.421875 83.9375 -128.875 99.53125 -128.875 Z M 81.625 -23.859375 C 90.0625 -23.859375 97.578125 -25.890625 104.171875 -29.953125 C 110.773438 -34.015625 115.988281 -39.664062 119.8125 -46.90625 C 123.632812 -54.144531 125.546875 -62.375 125.546875 -71.59375 C 125.546875 -81.625 122.597656 -89.460938 116.703125 -95.109375 C 110.816406 -100.753906 102.546875 -103.578125 91.890625 -103.578125 C 83.453125 -103.578125 75.929688 -101.546875 69.328125 -97.484375 C 62.722656 -93.429688 57.507812 -87.785156 53.6875 -80.546875 C 49.875 -73.304688 47.96875 -65.070312 47.96875 -55.84375 C 47.96875 -45.820312 50.910156 -37.984375 56.796875 -32.328125 C 62.691406 -26.679688 70.96875 -23.859375 81.625 -23.859375 Z M 81.625 -23.859375 "/></g></g></g><g fill="#0a63a4" fill-opacity="1"><g transform="translate(183.975989, 290.369025)"><g><path d="M 32.21875 -127.453125 L 62.046875 -127.453125 L 36.75 0 L 6.921875 0 Z M 53.9375 -148.453125 C 48.6875 -148.453125 44.390625 -150.082031 41.046875 -153.34375 C 37.703125 -156.601562 36.03125 -160.539062 36.03125 -165.15625 C 36.03125 -170.570312 37.898438 -175.109375 41.640625 -178.765625 C 45.378906 -182.421875 50.273438 -184.25 56.328125 -184.25 C 61.578125 -184.25 65.867188 -182.695312 69.203125 -179.59375 C 72.546875 -176.5 74.21875 -172.722656 74.21875 -168.265625 C 74.21875 -162.378906 72.347656 -157.601562 68.609375 -153.9375 C 64.867188 -150.28125 59.976562 -148.453125 53.9375 -148.453125 Z M 53.9375 -148.453125 "/></g></g></g><g fill="#0a63a4" fill-opacity="1"><g transform="translate(252.951385, 290.369025)"><g><path d="M 99.53125 -128.875 C 110.03125 -128.875 119.535156 -126.644531 128.046875 -122.1875 C 136.554688 -117.738281 143.273438 -111.296875 148.203125 -102.859375 C 153.140625 -94.429688 155.609375 -84.488281 155.609375 -73.03125 C 155.609375 -58.875 152.46875 -46.101562 146.1875 -34.71875 C 139.90625 -23.34375 131.3125 -14.429688 120.40625 -7.984375 C 109.507812 -1.546875 97.378906 1.671875 84.015625 1.671875 C 73.984375 1.671875 65.226562 -0.078125 57.75 -3.578125 C 50.28125 -7.078125 44.472656 -12.171875 40.328125 -18.859375 L 27.453125 46.296875 L -2.390625 46.296875 L 32.21875 -127.453125 L 60.625 -127.453125 L 58 -114.078125 C 69.132812 -123.941406 82.976562 -128.875 99.53125 -128.875 Z M 81.625 -23.859375 C 90.0625 -23.859375 97.578125 -25.890625 104.171875 -29.953125 C 110.773438 -34.015625 115.988281 -39.664062 119.8125 -46.90625 C 123.632812 -54.144531 125.546875 -62.375 125.546875 -71.59375 C 125.546875 -81.625 122.597656 -89.460938 116.703125 -95.109375 C 110.816406 -100.753906 102.546875 -103.578125 91.890625 -103.578125 C 83.453125 -103.578125 75.929688 -101.546875 69.328125 -97.484375 C 62.722656 -93.429688 57.507812 -87.785156 53.6875 -80.546875 C 49.875 -73.304688 47.96875 -65.070312 47.96875 -55.84375 C 47.96875 -45.820312 50.910156 -37.984375 56.796875 -32.328125 C 62.691406 -26.679688 70.96875 -23.859375 81.625 -23.859375 Z M 81.625 -23.859375 "/></g></g></g><g fill="#0a63a4" fill-opacity="1"><g transform="translate(416.673784, 290.369025)"><g/></g></g><g fill="#82b954" fill-opacity="1"><g transform="translate(446.332625, 301.557027)"><g><path d="M 200.25 0 L 162.78125 0 L 162.53125 -108.59375 L 122.4375 -16.703125 L 94.75 -16.703125 L 54.65625 -108.59375 L 54.65625 0 L 16.703125 0 L 16.703125 -167.3125 L 63.25 -167.3125 L 108.59375 -67.78125 L 153.9375 -167.3125 L 200.25 -167.3125 Z M 200.25 0 "/></g></g></g><g fill="#82b954" fill-opacity="1"><g transform="translate(637.720862, 301.557027)"><g><path d="M 147.5 -133.65625 L 59.1875 -133.65625 L 59.1875 -100.484375 L 138.90625 -100.484375 L 138.90625 -67.0625 L 59.1875 -67.0625 L 59.1875 -33.40625 L 150.125 -33.40625 L 150.125 0 L 16.703125 0 L 16.703125 -167.0625 L 147.5 -167.0625 Z M 147.5 -133.65625 "/></g></g></g><g fill="#82b954" fill-opacity="1"><g transform="translate(778.386952, 301.557027)"><g><path d="M 16.703125 -167.0625 L 88.546875 -167.0625 C 114.796875 -167.0625 136.15625 -159.34375 152.625 -143.90625 C 169.09375 -128.476562 177.328125 -108.351562 177.328125 -83.53125 C 177.328125 -58.875 168.972656 -38.785156 152.265625 -23.265625 C 135.566406 -7.753906 113.769531 0 86.875 0 L 16.703125 0 Z M 59.1875 -133.171875 L 59.1875 -33.890625 L 89.5 -33.890625 C 102.550781 -33.890625 113.253906 -38.460938 121.609375 -47.609375 C 129.960938 -56.765625 134.140625 -68.660156 134.140625 -83.296875 C 134.140625 -97.929688 129.757812 -109.898438 121 -119.203125 C 112.25 -128.515625 101.113281 -133.171875 87.59375 -133.171875 Z M 59.1875 -133.171875 "/></g></g></g></svg>